<svg xmlns="http://www.w3.org/2000/svg" viewBox="0 0 400 400" enable-background="new 0 0 400 400"><path fill-rule="evenodd" clip-rule="evenodd" fill="#fff" d="M200.5 367.6c-92.2 0-167.2-75-167.2-167.2s75-167.2 167.2-167.2 167.2 75 167.2 167.2-75 167.2-167.2 167.2zm141-144.3c-4.9-1.5-44.2-13.3-88.9-6.1 18.7 51.3 26.3 93.1 27.7 101.8 32-21.6 54.8-56 61.2-95.7zm-85.2 108.8c-2.1-12.5-10.4-56.2-30.5-108.3l-.9.3c-80.5 28.1-109.4 83.9-112 89.2 24.2 18.9 54.6 30.1 87.6 30.1 19.8 0 38.7-4 55.8-11.3zm-161.8-36c3.2-5.5 42.4-70.4 116.1-94.2 1.9-.6 3.7-1.2 5.6-1.7-3.6-8.1-7.5-16.2-11.6-24.2-71.3 21.3-140.5 20.4-146.7 20.3 0 1.4-.1 2.9-.1 4.4-.1 36.6 13.8 70.1 36.7 95.4zm-33.7-124.7c6.4.1 65.2.3 132-17.4-23.7-42.1-49.2-77.4-52.9-82.6-40 18.9-69.9 55.7-79.1 100zm106.3-109.6c3.9 5.3 29.9 40.6 53.3 83.6 50.8-19 72.3-47.9 74.8-51.6-25.2-22.4-58.4-36-94.6-36-11.6.1-22.8 1.5-33.5 4zm143.9 48.6c-3 4.1-26.9 34.7-79.7 56.3 3.3 6.8 6.5 13.7 9.5 20.7 1.1 2.5 2.1 4.9 3.1 7.4 47.5-6 94.7 3.6 99.4 4.6-.3-33.8-12.4-64.7-32.3-89z"/></svg>