<svg xmlns="http://www.w3.org/2000/svg" viewBox="0 0 512 512" enable-background="new 0 0 512 512"><path fill="#fff" d="M476 366c0 9.6-2.7 18.6-7.1 26.5l-138.9-155.5 137.4-120.2c5.3 8.5 8.6 18.4 8.6 29.2v220zm-220-100.8l191.2-167.3c-7.8-4.3-16.7-6.9-26.2-6.9h-330c-9.5 0-18.4 2.6-26.2 6.9l191.2 167.3zm53.3-10.1l-44.3 38.8c-2.6 2.3-5.8 3.4-9.1 3.4-3.2 0-6.5-1.1-9.1-3.4l-44.3-38.8-140.5 157.4c8.4 5.3 18.3 8.5 29 8.5h330c10.7 0 20.6-3.2 29-8.5l-140.7-157.4zm-264.7-138.3c-5.3 8.5-8.6 18.4-8.6 29.2v220c0 9.6 2.7 18.6 7.1 26.5l138.9-155.5-137.4-120.2z"/></svg>