<svg xmlns="http://www.w3.org/2000/svg" viewBox="0 0 400 400" enable-background="new 0 0 400 400"><path fill="#fff" d="M120.6 46.6c-111.4 19.9-148.5 145.7-59.9 203.3 4.9 3.1 4.9 2.8-2.4 24.5l-6.3 18.6 22.4-12 22.4-12 11.9 2.9c12.5 3.1 28.4 5.3 39.1 5.3h6.4l-2.2-8.4c-17.5-64.3 42.9-128 121.4-128h10.6l-2.2-7.6c-17.1-60.4-89.9-99.3-161.2-86.6zm-9.7 56.3c11.8 8 12.5 25.2 1.2 32.6-18.4 12-39.9-9.1-27.5-27.2 5.4-8.1 18.4-10.7 26.3-5.4zm94.8 0c19.4 13.1 4.9 43.2-16.9 34.9-15.7-6-17.6-27.6-2.9-35.4 5.8-3.1 14.8-2.9 19.8.5zm42.9 47.6c-55.2 10.1-93.4 51.9-91.2 100 2.9 64.4 78.4 108.8 150.9 88.9l8.6-2.3 18 9.7c9.9 5.4 18.3 9.4 18.5 8.9.2-.6-1.7-7.5-4.3-15.5-5.8-17.8-5.9-16.5 1.9-22.1 87.1-62.4 10.6-188-102.4-167.6zm-2.2 52c4.9 3.2 7.4 11.3 5.3 17.2-4.4 12.6-23.2 13.5-28.3 1.4-5.8-14 10.2-27 23-18.6zm77.3 1.3c7.6 7.3 6.4 19.7-2.5 24.3-13.6 6.9-28-6.9-20.9-20.2 4.5-8.6 16.4-10.6 23.4-4.1z"/></svg>