<svg xmlns="http://www.w3.org/2000/svg" viewBox="0 0 300 300" enable-background="new 0 0 300 300"><path fill="#fff" d="M196.8 40c-8.7 3.8-10.6 12.8-4.3 19.1 3.1 3.1 6 3.6 18.6 3.6 17.7 0 29.6 4.7 38.6 15.1 11 12.4 12.3 16.2 12.3 39 0 20.2 0 20.6 4.7 23.3 10.8 6.1 18-1.4 20.6-21.6 3.2-26.3-12.4-57-36.1-71.1-15.6-9.1-42.1-12.7-54.4-7.4zm-88.7 33.5c-20.2 7.2-39.7 21.1-60.6 43.5-49.6 52.7-46.3 102.8 8.3 129.5 56.8 27.8 133.3 18.6 174.9-21.1 31.2-29.6 27.4-66.7-8.1-79.3-6.3-2.2-8.3-3.8-7.4-5.8 3.2-7.9 4.3-17.1 2.5-22.5-5.6-17.1-26-21.1-56.3-10.8l-12.1 4.1 1.1-12.1c1.3-14.2-1.8-22-10.3-26.3-7-3.7-20.5-3.3-32 .8zm50.1 69.8c26.9 7.4 43.3 23.6 43.3 42.9 0 21.5-19.1 40.8-50.1 51-16.6 5.4-47.4 6.5-62.6 2.3-28.7-8.1-44.9-24-44.9-44.4 0-11.2 4.9-20.9 15.5-30.8 9.9-9.4 17.5-13.9 32.1-18.8 22-7.3 45.6-8.2 66.7-2.2zm-56.8 17.5c-18.2 8.5-28 21.5-28 37.7 0 14.8 6.5 24.9 20.7 32.5 11 6 31.2 5.4 43.5-.9 15.7-8.3 26-23.6 26-38.6-.2-12.3-11-26.9-23.8-32.1-10.3-4.4-27.6-3.7-38.4 1.4zm13.2 33.9c1.3 1.3 2.2 4.3 2.2 7 0 9-15.1 16.4-21.3 10.3-3.4-3.4-2.5-11.9 1.4-15.9 4-3.9 14.2-4.8 17.7-1.4zm85.3-117.8c-8.3 8.3-2.7 18.2 10.5 18.2 11.4 0 16.4 5.8 16.4 18.8 0 8.1.7 10.5 4 12.6 9.7 6.9 17.7-.7 17.7-16.8 0-19.7-14.1-34.4-34.1-35.9-9.1-.7-11.3-.1-14.5 3.1z"/></svg>