<svg xmlns="http://www.w3.org/2000/svg" viewBox="0 0 300 300" enable-background="new 0 0 300 300"><path fill="#fff" d="M159.2 163.9s-.1-20.1-6.5-20.1h-44.6c1.5-23.1 1.9-44 1.9-62.6h43.6s1.7-19.2-7.3-19h-75.4c3-11.2 6.7-22.7 11.2-34.7 0 0-20.5 0-27.5 18.4-2.9 7.6-11.3 36.8-26.2 66.6 5-.5 21.6-1 31.4-18.9 1.8-5 2.1-5.7 4.4-12.4h24.6c0 8.9.1 21.3-.6 36.2 0 14.2-.4 20.8-.8 26.4h-44.6c-10 0-13.3 20.1-13.3 20.1h55.9c-3.7 42.5-23.9 77.9-60.4 106.2 6 6 35.6-.2 43.5-8.1 0 0 19.6-17.8 30.3-59 14.1 16.4 26.1 30.9 35.8 43.6 4.5 6 10.1 12.3 10.1 12.3s6.9-23.5-.9-34.6c-6.5-7.6-24.1-28.3-31.5-35.8l-12.3 10.1c3.7-11.9 6-23.5 6.7-34.7h52.5zm11.2 80.4h20l6.4 22.3s30.6-22.3 36-22.3h42.2v-185.3h-104.6v185.3zm21.2-165.2h63.3v145.1h-24.3l-24.6 15.5-4-15.4h-10.3l-.1-145.2z"/></svg>