<svg xmlns="http://www.w3.org/2000/svg" viewBox="0 0 300 300" enable-background="new 0 0 300 300"><path d="M160.2 165.4s-.1-22.3-7.2-22.3h-49.4c1.6-25.6 2.1-48.7 2.1-69.4h48.3s1.9-21.3-8.1-21.1h-83.6c3.3-12.4 7.4-25.2 12.4-38.4 0 0-22.7 0-30.5 20.4-3.2 8.4-12.5 40.8-29 73.8 5.6-.6 24-1.1 34.8-21 2-5.5 2.4-6.3 4.9-13.7h27.3c0 9.9.1 23.6-.7 40.1 0 15.7-.5 23.1-.9 29.3h-49.5c-11.1 0-14.7 22.3-14.7 22.3h62c-4.1 47.1-26.5 86.4-66.9 117.7 6.6 6.6 39.5-.2 48.2-8.9 0 0 21.7-19.7 33.6-65.4 15.7 18.2 28.9 34.3 39.7 48.3 5 6.6 11.2 13.6 11.2 13.6s7.6-26-1-38.4c-7.2-8.4-26.7-31.4-34.9-39.7l-13.6 11.2c4.1-13.2 6.6-26 7.4-38.4h58.1zm12.4 89.2h22.1l7.1 24.8s33.9-24.8 39.9-24.8h46.7v-205.5h-115.8v205.5zm23.6-183.2h70.2v160.9h-26.9l-27.3 17.1-4.5-17.1h-11.5v-160.9z"/></svg>